<svg width="16" height="16" viewBox="0 0 16 16" fill="none" xmlns="http://www.w3.org/2000/svg">
<g clip-path="url(#clip0)">
<path d="M15.6465 6.79998C15.0801 6.35358 14.0225 6.73438 13.1985 7.64958C12.4289 7.43518 11.7457 7.48798 11.1633 7.81598C10.0481 8.44478 9.62567 9.89118 9.46887 10.9904C9.44487 11.16 9.42247 11.3328 9.39847 11.5056C9.14887 13.408 8.91207 15.2064 6.65607 15.2064C6.61927 15.2064 6.58247 15.2064 6.54407 15.2048C5.90407 15.1888 5.44327 14.9904 5.13607 14.5968C4.56967 13.8704 4.66727 12.6832 4.73927 12.1904C4.96327 12.0896 5.12167 11.8688 5.12967 11.608L5.16327 10.6336L6.35847 10.2784C6.50727 10.2336 6.62247 10.1392 6.70567 10.0224C6.92007 10.0704 7.18727 10.0592 7.37607 9.94078C7.70727 9.73438 8.19047 9.33758 8.79207 8.58718C9.44967 7.76638 9.61127 7.10558 9.62727 6.67678C9.63527 6.37118 9.42247 6.06078 9.26407 5.97438C9.10567 5.88798 9.07687 6.04958 9.10727 6.35358C9.15207 6.81118 9.08007 7.50718 8.48967 8.26398C8.47847 8.27678 8.46887 8.28638 8.45927 8.29918L8.46407 8.26558C8.60487 8.04798 8.72647 7.81918 8.81927 7.57438C9.77927 5.03198 7.70407 2.06558 7.61447 1.94078C7.59527 1.91358 7.56967 1.89598 7.54407 1.87518C7.60327 1.73918 7.58887 1.61598 7.48967 1.55198C7.33447 1.45118 7.09127 1.14878 6.95047 0.876778L6.70087 0.399978C6.56167 0.129578 6.26727 0.0815779 6.04647 0.292778L5.42727 0.894378C5.20487 1.10558 5.24807 1.39198 5.51847 1.53438L5.95527 1.75838C6.22567 1.90078 6.52167 2.15678 6.61767 2.33118C6.68967 2.46078 6.85607 2.47998 7.02727 2.39198C7.20327 2.64798 8.91207 5.24158 8.12807 7.31678C8.09607 7.40158 8.04647 7.47998 8.00487 7.56158L8.00007 7.56318C7.95207 7.55198 7.90567 7.53438 7.85607 7.53438C7.73287 7.53438 7.61767 7.57118 7.52167 7.63198L7.66727 7.77118C7.57927 7.87838 7.52007 8.00958 7.52007 8.15838C7.52007 8.19518 7.52807 8.23038 7.53447 8.26558C7.25927 8.56638 6.91527 8.83518 6.49927 9.06398C6.34567 8.97758 6.16007 8.95038 5.97927 9.00478L4.52327 9.43678L2.96487 8.94398C2.78727 8.88798 2.60167 8.91198 2.44967 8.99518C1.70727 8.55518 1.20167 7.99358 0.944071 7.31678C0.123272 5.14238 2.04167 2.39678 2.06087 2.36958C2.06247 2.36478 2.06247 2.35998 2.06727 2.35518C2.06727 2.35518 2.11207 2.39838 2.16807 2.44798C2.22407 2.50078 2.34567 2.40158 2.44167 2.22718C2.53607 2.05118 2.83527 1.79518 3.10567 1.65438L3.54087 1.42878C3.81287 1.28798 3.85447 1.00158 3.63367 0.788778L3.01287 0.188778C2.79207 -0.0240221 2.50087 0.023978 2.35847 0.295978L2.11047 0.772778C1.96807 1.04478 1.72647 1.34558 1.57127 1.44798C1.41287 1.54718 1.34407 1.68318 1.41287 1.74718L1.53927 1.86558C1.50887 1.88638 1.48167 1.90878 1.45767 1.94078C1.36807 2.06558 -0.707128 5.03198 0.252872 7.57438C0.576072 8.42558 1.19687 9.11838 2.10567 9.64638C2.12967 9.90078 2.30407 10.128 2.56327 10.2112L3.83527 10.6128L3.80167 11.5616C3.79687 11.7584 3.87847 11.9376 4.00967 12.0656C3.92167 12.6528 3.80487 14.0896 4.55207 15.048C4.99847 15.6208 5.66247 15.9216 6.52647 15.9424C6.57287 15.9456 6.61767 15.9456 6.66247 15.9456C9.56007 15.9456 9.87687 13.5408 10.1313 11.6032C10.1537 11.4336 10.1761 11.264 10.2001 11.096C10.3889 9.77278 10.8593 8.83678 11.5265 8.46078C11.8609 8.27038 12.2625 8.21758 12.7201 8.29758C12.1457 9.24638 12.0737 10.2368 12.5969 10.6528C13.2033 11.1328 14.3777 10.6592 15.2193 9.59518C16.0609 8.53118 16.2513 7.27998 15.6465 6.79998ZM8.35367 8.42558C8.30407 8.48478 8.25447 8.54878 8.20647 8.60318C8.25447 8.54238 8.30247 8.48158 8.34727 8.41918L8.35367 8.42558ZM14.1377 8.71518C13.8225 9.11518 13.3825 9.29278 13.1553 9.11198C12.9889 8.98078 12.9841 8.69438 13.1153 8.39358C13.2353 8.43198 13.3569 8.47358 13.4817 8.52638C13.6721 8.60638 13.8865 8.51998 13.9665 8.33118C14.0465 8.14398 13.9585 7.92638 13.7697 7.84638C13.7137 7.82238 13.6609 7.80478 13.6049 7.78558C13.8625 7.59678 14.1329 7.53918 14.2945 7.66878C14.5233 7.84958 14.4513 8.31838 14.1377 8.71518Z" fill="#231815"/>
</g>
<defs>
<clipPath id="clip0">
<rect width="16" height="16" fill="white"/>
</clipPath>
</defs>
</svg>
